<svg id="Layer_1" enable-background="new 0 0 64 64" height="64" viewBox="0 0 512 512" width="64" xmlns="http://www.w3.org/2000/svg"><g><g><path d="m256 0-10.667 234.667 10.667 277.333s36.53-44.011 48.453-57.839c83.112-96.388 143.162-166.03 143.162-262.545 0-105.658-85.958-191.616-191.615-191.616z" fill="#2B993F"/><path d="m64.385 191.615c0 96.515 60.05 166.157 143.162 262.545 11.923 13.829 48.453 57.84 48.453 57.84v-512c-105.657 0-191.615 85.958-191.615 191.615z" fill="#36c951"/></g><g><path d="m342.773 214.284c8.439-9.429 13.571-21.88 13.571-35.53 0-29.434-23.861-53.294-53.294-53.294-20.14 0-37.662 11.177-46.725 27.661l-10.991 60.213 10.666 85.333c.002-.003 77.014-73.481 86.773-84.383z" fill="#daf2de"/><path d="m208.951 125.459c-29.434 0-53.294 23.861-53.294 53.294 0 13.65 5.131 26.101 13.57 35.53 9.759 10.903 86.771 84.381 86.773 84.383v-145.545h-.324c-9.063-16.485-26.585-27.662-46.725-27.662z" fill="#f0f5f1"/></g></g></svg>